<svg width="60" height="60" viewBox="0 0 60 60" fill="none" xmlns="http://www.w3.org/2000/svg">
<path d="M16.7112 31.875H25.1487C25.6664 31.875 26.0862 32.2948 26.0862 32.8125V39.375C26.0862 39.8927 25.6664 40.3125 25.1487 40.3125H16.7112C16.1935 40.3125 15.7737 39.8927 15.7737 39.375V32.8125C15.7737 32.2948 16.1935 31.875 16.7112 31.875Z" fill="#A195A7"/>
<path d="M45.9375 21.5625H59.0625C59.5802 21.5625 60 21.1427 60 20.625C60 20.1073 59.5802 19.6875 59.0625 19.6875H45.9375C45.4198 19.6875 45 20.1073 45 20.625C45 21.1427 45.4198 21.5625 45.9375 21.5625Z" fill="#A195A7"/>
<path d="M49.6866 23.4379C49.7621 23.4379 49.8386 23.4288 49.915 23.4096C50.4172 23.2841 50.7225 22.7751 50.5971 22.2725L49.6596 18.5225C49.5337 18.0203 49.0247 17.715 48.5225 17.8404C48.0203 17.9663 47.7145 18.4753 47.8404 18.9775L48.7779 22.7275C48.8846 23.1532 49.2668 23.4379 49.6866 23.4379Z" fill="#C1B8C4"/>
<path d="M52.4991 23.4379C52.5746 23.4379 52.6511 23.4288 52.7275 23.4096C53.2297 23.2841 53.535 22.7751 53.4096 22.2725L52.4721 18.5225C52.3462 18.0203 51.8372 17.715 51.335 17.8404C50.8328 17.9663 50.527 18.4753 50.6529 18.9775L51.5904 22.7275C51.6971 23.1532 52.0793 23.4379 52.4991 23.4379Z" fill="#C1B8C4"/>
<path d="M55.3116 23.4379C55.3871 23.4379 55.4636 23.4288 55.54 23.4096C56.0422 23.2841 56.3475 22.7751 56.2221 22.2725L55.2846 18.5225C55.1587 18.0203 54.6497 17.715 54.1475 17.8404C53.6453 17.9663 53.3395 18.4753 53.4654 18.9775L54.4029 22.7275C54.5096 23.1532 54.8918 23.4379 55.3116 23.4379Z" fill="#C1B8C4"/>
<path d="M58.1241 23.4379C58.1996 23.4379 58.2761 23.4288 58.3525 23.4096C58.8547 23.2841 59.16 22.7751 59.0346 22.2725L58.0971 18.5225C57.9712 18.0203 57.4622 17.715 56.96 17.8404C56.4578 17.9663 56.152 18.4753 56.2779 18.9775L57.2154 22.7275C57.3221 23.1532 57.7043 23.4379 58.1241 23.4379Z" fill="#C1B8C4"/>
<path d="M40.3125 17.8125H45.9375C46.4552 17.8125 46.875 18.2323 46.875 18.75V22.5C46.875 23.0177 46.4552 23.4375 45.9375 23.4375H40.3125C39.7948 23.4375 39.375 23.0177 39.375 22.5V18.75C39.375 18.2323 39.7948 17.8125 40.3125 17.8125Z" fill="#FFD982"/>
<path d="M4.84167 42.8792L9.24124 26.0133C9.34927 25.6004 9.72189 25.3125 10.1485 25.3125H24.211C24.5013 25.3125 24.7755 25.4471 24.9531 25.6769C25.1307 25.9067 25.1916 26.2056 25.1183 26.4867L20.2244 45.2458C19.6865 47.309 17.8211 48.75 15.6888 48.75H9.3772C7.91418 48.75 6.56241 48.0862 5.66794 46.9281C4.77347 45.7704 4.47226 44.2946 4.84167 42.8792Z" fill="#DBDBFF"/>
<path d="M6.5647 46.875H12.8763C15.0086 46.875 16.8735 45.434 17.4119 43.3708L22.1227 25.3125H24.211C24.5013 25.3125 24.7755 25.4471 24.9531 25.6769C25.1307 25.9067 25.1916 26.2056 25.1183 26.4867L20.2244 45.2458C19.6865 47.309 17.8211 48.75 15.6888 48.75H9.3772C7.91419 48.75 6.56242 48.0862 5.66795 46.9281C5.62629 46.8745 5.58738 46.8192 5.54847 46.7642C5.87806 46.8365 6.21818 46.875 6.5647 46.875Z" fill="#2D24A3"/>
<path d="M6.5625 11.25H33.75C38.9195 11.25 43.125 15.4555 43.125 20.625C43.125 25.7945 38.9195 30 33.75 30H6.5625C2.94388 30 0 27.0561 0 23.4375V17.8125C0 14.1939 2.94388 11.25 6.5625 11.25Z" fill="#DBDBFF"/>
<path d="M6.5625 26.25H33.75C38.2773 26.25 42.0653 23.0241 42.9364 18.75C43.06 19.3561 43.125 19.9832 43.125 20.625C43.125 25.7945 38.9195 30 33.75 30H6.5625C2.94388 30 0 27.0561 0 23.4375V19.6875C0 23.3061 2.94388 26.25 6.5625 26.25Z" fill="#2D24A3"/>
<path d="M30.9375 11.25H8.4375V30H30.9375V11.25Z" fill="#FFC064"/>
<path d="M30.9375 26.25H8.4375V30H30.9375V26.25Z" fill="#FFC02E"/>
<path d="M13.125 16.875H24.375C24.8927 16.875 25.3125 16.4552 25.3125 15.9375C25.3125 15.4198 24.8927 15 24.375 15H13.125C12.6073 15 12.1875 15.4198 12.1875 15.9375C12.1875 16.4552 12.6073 16.875 13.125 16.875Z" fill="#EA8237"/>
<path d="M13.125 21.5625H24.375C24.8927 21.5625 25.3125 21.1427 25.3125 20.625C25.3125 20.1073 24.8927 19.6875 24.375 19.6875H13.125C12.6073 19.6875 12.1875 20.1073 12.1875 20.625C12.1875 21.1427 12.6073 21.5625 13.125 21.5625Z" fill="#EA8237"/>
<path d="M13.125 26.25H24.375C24.8927 26.25 25.3125 25.8302 25.3125 25.3125C25.3125 24.7948 24.8927 24.375 24.375 24.375H13.125C12.6073 24.375 12.1875 24.7948 12.1875 25.3125C12.1875 25.8302 12.6073 26.25 13.125 26.25Z" fill="#EA8237"/>
<path d="M34.6875 11.25H29.0625V30H34.6875V11.25Z" fill="#A195A7"/>
<path d="M34.6875 26.25H29.0625V30H34.6875V26.25Z" fill="#827189"/>
</svg>
