<svg width="80" height="80" viewBox="0 0 80 80" fill="none" xmlns="http://www.w3.org/2000/svg">
<path d="M40 80C54.6593 75.862 65.3204 64.8277 67.9858 59.3103C72.6904 49.5716 75.2936 24.0206 75.862 17.8919C70.6268 14.4317 66.5017 9.33844 64.154 3.30219C57.4856 1.23594 49.1101 0 40 0C30.8898 0 22.514 1.23594 15.8459 3.30203C13.4984 9.33844 9.3731 14.4316 4.13794 17.8917C4.70638 24.0205 7.3095 49.5716 12.0142 59.3103C14.6795 64.8277 25.3406 75.862 40 80Z" fill="#EAEFF3"/>
<path d="M15.8459 3.30203C13.4983 9.33844 9.3731 14.4316 4.13794 17.8917C4.70638 24.0205 7.30935 49.5716 12.0142 59.3103C14.6795 64.8277 25.3406 75.862 40 80V0C30.8898 0 22.514 1.23594 15.8459 3.30203Z" fill="#D5DCED"/>
<path d="M40.0001 5.51709C33.3373 5.51709 26.8123 6.23006 21.1304 7.57881L19.9016 7.87053L19.3196 8.99147C17.2163 13.0415 14.423 16.6018 11.0177 19.5735L9.93555 20.518L10.0888 21.9463C10.7587 28.1876 13.2354 49.1541 16.9824 56.9102C18.8571 60.7908 27.2651 69.7657 39.0846 73.9246L40.0002 74.2468L40.9159 73.9246C52.7355 69.7658 61.1435 60.791 63.0182 56.9101C66.7651 49.1538 69.2418 28.1872 69.9116 21.9463L70.0649 20.518L68.9827 19.5735C65.5774 16.6018 62.7841 13.0415 60.6809 8.99147L60.0988 7.87053L58.8701 7.57881C53.1879 6.23006 46.6629 5.51709 40.0001 5.51709Z" fill="#D5DCED"/>
<path d="M21.1304 7.57881L19.9016 7.87053L19.3196 8.99146C17.2163 13.0415 14.423 16.6018 11.0177 19.5735L9.93555 20.5182L10.0888 21.9465C10.7587 28.1877 13.2354 49.1543 16.9824 56.9104C18.8571 60.791 27.2651 69.7658 39.0846 73.9247L40.0002 74.2469V5.51709C33.3373 5.51709 26.8123 6.23006 21.1304 7.57881Z" fill="#AFB9D2"/>
<path d="M40.0001 8.276C46.4628 8.276 52.8 8.97334 58.2325 10.263C60.4915 14.6129 63.512 18.461 67.1687 21.6521C65.7044 35.2954 63.232 50.1257 60.5342 55.7104C59.0065 58.8726 51.1108 67.4133 40.0001 71.3226C28.8895 67.4132 20.9937 58.8726 19.4662 55.7105C16.7683 50.1258 14.2959 35.2955 12.8315 21.6523C16.4883 18.461 19.5086 14.6132 21.7678 10.2632C27.2003 8.97334 33.5375 8.276 40.0001 8.276Z" fill="#7C8BFE"/>
<path d="M21.7673 10.263C19.5082 14.6129 16.4878 18.461 12.8311 21.6521C14.2954 35.2955 16.7678 50.1257 19.4657 55.7104C20.9934 58.8724 28.889 67.4132 39.9997 71.3224L40 8.276C33.5373 8.276 27.2001 8.97334 21.7673 10.263Z" fill="#192C97"/>
</svg>
