<svg width="60" height="60" viewBox="0 0 60 60" fill="none" xmlns="http://www.w3.org/2000/svg">
<g clip-path="url(#clip0)">
<path d="M14.7976 33.8246V43.7842H54.6313C55.6315 43.7842 56.4422 42.9735 56.4422 41.9733C56.4422 41.0944 56.4422 34.7021 56.4422 33.8246L35.6199 31.4099L14.7976 33.8246Z" fill="#7C8BFE"/>
<path d="M52.8204 33.3417V40.1624H14.7976V43.7842H54.6313C55.6315 43.7842 56.4422 42.9735 56.4422 41.9733C56.4422 41.1401 56.4422 34.6417 56.4422 33.8246L52.8204 33.3417Z" fill="#192C97"/>
<path d="M58.072 9.96094H20.2305C19.2303 9.96094 18.4196 10.7716 18.4196 11.7719V17.4152H6.34283C4.64865 17.4152 3.18106 18.5893 2.80936 20.2423L1.43881 26.337C1.08679 27.9025 0.90918 29.5024 0.90918 31.1073V43.7842H18.4196C18.4196 43.4894 18.4196 39.0106 18.4196 33.8246H58.072C59.0722 33.8246 59.8829 33.0139 59.8829 32.0137V11.7719C59.8829 10.7716 59.0722 9.96094 58.072 9.96094Z" fill="#EAEFF3"/>
<path d="M58.072 9.96094H56.261V30.2028H18.4196C18.4196 23.8326 18.4196 17.5868 18.4196 17.4152H14.7977V33.8246H12.0814C9.44189 33.8246 7.04047 34.8587 5.2561 36.541H0.90918V43.7842H18.4196C18.4196 43.5388 18.4196 39.0395 18.4196 33.8246H58.072C59.0722 33.8246 59.8829 33.0139 59.8829 32.0137V11.7719C59.8829 10.7716 59.0722 9.96094 58.072 9.96094Z" fill="#D1DAE0"/>
<path d="M0.788269 43.7842H7.41531V40.1624H0.788269C0.288391 40.1624 -0.117188 40.5679 -0.117188 41.0678V42.8787C-0.117188 43.3791 0.288391 43.7842 0.788269 43.7842Z" fill="#7C8BFE"/>
<path d="M14.7976 21.0365H6.12668L4.40503 28.6926H14.7976V21.0365Z" fill="#E1E5FE"/>
<path d="M11.3919 25.0708H5.21939L4.40503 28.6926H14.7976V21.0365H11.3919V25.0708Z" fill="#A3AEFE"/>
<path d="M47.6893 50.1223C44.1947 50.1223 41.3516 47.2792 41.3516 43.7841C41.3516 40.2896 44.1947 37.4464 47.6893 37.4464C51.1843 37.4464 54.0275 40.2896 54.0275 43.7841C54.0275 47.2792 51.1843 50.1223 47.6893 50.1223Z" fill="#596775"/>
<path d="M48.9854 37.5801C48.2424 38.9525 48.4502 40.7034 49.6102 41.8634L45.7686 45.7049C44.6087 44.545 42.8577 44.3371 41.4854 45.0801C42.085 47.9553 44.6389 50.1223 47.6894 50.1223C51.1844 50.1223 54.0276 47.2792 54.0276 43.7841C54.0276 40.7336 51.8606 38.1797 48.9854 37.5801Z" fill="#35404A"/>
<path d="M50.4057 43.7842C50.4057 45.2843 49.1898 46.5006 47.6893 46.5006C46.1892 46.5006 44.9734 45.2843 44.9734 43.7842C44.9734 42.2841 46.1892 41.0679 47.6893 41.0679C49.1898 41.0679 50.4057 42.2841 50.4057 43.7842Z" fill="#D1DAE0"/>
<path d="M12.0814 50.1223C8.58682 50.1223 5.74365 47.2792 5.74365 43.7841C5.74365 40.2896 8.58682 37.4464 12.0814 37.4464C15.5764 37.4464 18.4196 40.2896 18.4196 43.7841C18.4196 47.2792 15.5764 50.1223 12.0814 50.1223Z" fill="#596775"/>
<path d="M13.3772 37.5801C12.6342 38.9525 12.8421 40.7034 14.002 41.8634L10.1605 45.7049C9.00052 44.545 7.24957 44.3371 5.8772 45.0801C6.47687 47.9553 9.03073 50.1223 12.0813 50.1223C15.5763 50.1223 18.4195 47.2792 18.4195 43.7841C18.4195 40.7336 16.2524 38.1797 13.3772 37.5801Z" fill="#35404A"/>
<path d="M14.7977 43.7842C14.7977 45.2843 13.5815 46.5006 12.0814 46.5006C10.5813 46.5006 9.36499 45.2843 9.36499 43.7842C9.36499 42.2841 10.5813 41.0679 12.0814 41.0679C13.5815 41.0679 14.7977 42.2841 14.7977 43.7842Z" fill="#D1DAE0"/>
</g>
<defs>
<clipPath id="clip0">
<rect width="60" height="60" fill="white"/>
</clipPath>
</defs>
</svg>
