<svg width="77" height="138" viewBox="0 0 77 138" fill="none" xmlns="http://www.w3.org/2000/svg">
<g opacity="0.8">
<g opacity="0.8">
<path opacity="0.8" d="M65.9899 70.2206C65.7462 70.4642 65.5025 70.7079 65.2588 70.9515C65.0151 71.1952 65.0151 71.1951 64.7714 71.4388C63.7966 72.4134 62.3343 73.6316 60.8721 75.0935C60.3847 75.5808 59.6536 76.3117 59.1662 76.799C58.6787 77.2863 57.9477 78.0172 57.4603 78.5045C57.2166 78.7482 56.9728 78.9918 56.7291 79.2355C55.998 79.9664 55.2669 80.6974 54.7795 81.672C53.561 83.1338 52.8299 84.5957 52.0987 85.8139C51.855 86.3012 51.6113 86.5449 51.6113 87.0322C51.1239 88.0068 50.6365 89.225 50.1491 89.9559C49.9054 90.1996 49.9054 90.4433 49.6617 90.9305C49.418 91.1742 49.418 91.4178 49.1743 91.6615C48.6868 92.3924 48.1995 92.8797 47.4684 93.367C46.7373 93.8543 46.0062 94.3416 45.275 94.5853C44.7876 94.8289 44.0565 95.0725 43.3254 95.3162C41.8631 95.8035 40.1572 96.0471 38.4513 96.2908C38.2076 96.2908 37.7202 96.2908 37.4765 96.2908C34.552 96.2908 31.8713 94.8289 30.1653 92.6361C29.6779 91.9051 29.1905 91.1742 28.9468 90.1996C27.2409 85.083 20.9046 78.0173 13.106 69.7333C3.84525 59.9874 0.920815 48.536 1.16452 30.7498C1.16452 24.4149 4.08893 19.0547 7.7445 14.6691C11.4001 10.0398 16.2742 6.6287 21.6357 4.19223C23.3416 3.46129 24.8038 2.974 26.5098 2.48671C30.1653 1.51212 33.8209 0.781189 37.7202 0.781189H37.9639C40.1573 0.781189 42.3505 0.781167 44.5439 1.02481C51.3676 1.75575 56.9728 3.94861 61.6032 7.60331C63.5528 9.06519 65.2588 10.7707 66.9647 12.7199C69.6455 16.1309 71.5951 20.5166 73.7884 25.1459C83.0492 47.805 69.1581 65.5913 65.9899 70.2206Z" fill="#B0AFFD"/>
<path opacity="0.8" d="M65.9898 70.2206C65.7461 70.4642 65.5024 70.7079 65.2587 70.9515C65.015 71.1951 65.015 71.1951 64.7713 71.4388C63.7965 72.4134 62.3342 73.6316 60.872 75.0935C60.3846 75.5808 59.6535 76.3117 59.1661 76.799C58.6786 77.2863 57.9476 78.0172 57.4602 78.5045C57.2165 78.7482 56.9727 78.9918 56.729 79.2355C55.9979 79.9664 55.2668 80.6974 54.7794 81.6719C54.5357 81.9156 54.5357 82.1592 54.292 82.4029C53.3171 83.6211 52.8297 84.5957 52.0986 85.8139C51.8549 86.3012 51.6112 86.5449 51.6112 87.0322C51.1238 88.0068 50.6364 89.225 50.149 89.9559C49.9053 90.1996 49.9053 90.4432 49.6616 90.9305C49.4179 91.1742 49.4179 91.4178 49.1741 91.6615C48.6867 92.3924 48.1994 92.8797 47.4683 93.367C47.9557 86.3012 51.3675 80.941 53.3172 78.2609C55.7542 75.0935 63.7964 65.8349 66.2335 59.7437C68.6705 53.4089 70.6202 40.252 70.1328 30.9934C69.8891 26.3641 68.1831 19.0547 66.7209 12.9635C69.4017 16.3746 71.3513 20.7602 73.5446 25.3895C83.0491 47.805 69.158 65.5913 65.9898 70.2206Z" fill="#7C8BFE"/>
<path opacity="0.8" d="M34.0645 91.4178H33.8207C33.0896 91.6614 32.3585 91.6614 31.8711 91.9051C31.14 92.1487 30.4089 92.3924 29.4341 92.8797C28.9467 92.1488 29.1904 91.1742 28.9467 90.4432C27.2407 85.3266 20.9045 78.2609 13.106 69.9769C3.84524 59.9874 -8.09624 33.4299 7.74446 14.9127C9.45039 12.9635 11.1563 11.258 13.106 9.7961C15.7867 7.60328 18.7111 5.89774 21.6356 4.6795C19.6859 8.33421 15.0556 18.3237 14.5682 26.1204C14.0808 35.6227 15.7867 41.7138 18.4675 48.5359C21.1482 55.3581 26.5096 64.6167 27.7282 67.2968C28.9467 69.7332 32.3585 79.2355 33.0897 83.3774C33.5771 87.7631 34.0645 91.4178 34.0645 91.4178Z" fill="#7C8BFE"/>
<path opacity="0.8" d="M66.2335 36.841C65.9898 39.5211 63.309 48.7797 62.5779 50.4852C61.8468 52.4344 56.9728 64.3731 56.2417 65.835C55.7543 67.2968 50.8802 75.8245 49.9054 78.261C48.9305 80.6974 47.4683 83.3775 46.9809 84.8394C46.4935 86.3013 45.5186 92.3925 45.5186 92.3925L43.569 91.9052L41.6194 91.4179L41.8631 75.8245C41.8631 75.8245 41.3757 67.5405 41.3757 63.8858C41.3757 60.2311 41.3757 49.7543 41.8631 33.6736C42.1068 21.0039 39.426 6.8724 38.2075 1.26852C42.8379 1.26852 47.2246 1.75583 51.1239 2.73042C55.2668 3.94866 58.6787 5.65418 61.8468 8.09064C66.7209 17.1056 66.4772 34.6482 66.2335 36.841Z" fill="#7C8BFE"/>
<path opacity="0.8" d="M66.2333 36.841C65.9896 39.5211 63.3089 48.7797 62.5778 50.4852C61.8466 52.4344 56.9726 64.3731 56.2415 65.835C55.7541 67.2968 50.88 75.8245 49.9052 78.261C48.9304 80.6974 47.4681 83.3775 46.9807 84.8394C46.4933 86.3013 45.5185 92.3925 45.5185 92.3925L43.5688 91.9052C44.0563 86.7886 45.7622 76.0681 47.2244 73.6317C48.9303 70.7079 52.5859 61.693 57.2163 43.9067C62.0904 25.6332 55.2666 7.11608 50.6363 2.48679C54.7792 3.70502 58.1911 5.41054 61.3592 7.84701C66.7207 17.1056 66.477 34.6482 66.2333 36.841Z" fill="#B0AFFD"/>
<g opacity="0.8">
<g opacity="0.8">
<path opacity="0.8" d="M1.65192 44.394C3.60155 42.6885 5.55118 40.9829 7.74451 39.521C9.93784 38.0592 12.1312 36.8409 14.5683 35.8663C19.4423 33.9171 24.5601 32.4553 29.9216 31.7243C40.4008 30.2624 51.1238 32.2116 61.1157 35.1354C63.7964 35.8663 66.4771 37.0846 68.9142 38.5465C71.3512 40.0083 73.7883 41.2266 75.4942 43.1757C75.7379 43.4194 75.9816 42.9321 75.9816 42.9321C74.5193 41.2266 72.326 40.0083 70.3764 38.7901C68.1831 37.5718 66.2334 36.3536 64.0401 35.379C58.9223 33.4299 53.3171 32.2116 47.9556 31.237C36.989 29.5315 26.2661 30.7497 16.0305 34.6481C13.3498 35.6227 10.9127 36.8409 8.47567 38.5465C6.03863 40.0083 3.84531 42.2012 1.40827 43.9067C0.920864 44.1503 1.40821 44.394 1.65192 44.394Z" fill="#CFCFFF"/>
</g>
<g opacity="0.8">
<path opacity="0.8" d="M2.13929 47.5614C5.30745 44.1503 9.6941 41.9575 13.8371 39.7647C18.7112 37.5719 23.5853 35.3791 28.7031 34.6481C38.9386 32.9426 49.6617 34.6481 59.4098 38.0592C62.0906 39.0338 64.7713 40.0084 67.452 41.4702C68.9143 42.2012 70.1328 42.9321 71.3513 43.663C72.5699 44.394 73.7884 44.8813 75.0069 45.6122C75.2506 45.8559 75.4943 45.3686 75.2506 45.3686C74.2758 44.6377 73.0573 44.1503 72.0825 43.663C70.864 42.9321 69.6454 42.2012 68.4269 41.4702C66.2336 40.252 63.7965 39.2774 61.3594 38.3028C56.4853 36.3536 51.1239 34.8918 46.0061 34.1608C40.6446 33.4299 35.2831 33.1862 30.1653 33.9172C25.0475 34.6481 20.1734 36.3537 15.543 38.5465C10.6689 40.7393 5.55113 43.1757 1.65186 47.3177C1.65186 47.5614 1.89559 47.8051 2.13929 47.5614Z" fill="#CFCFFF"/>
</g>
<g opacity="0.8">
<path opacity="0.8" d="M25.0475 84.1084C29.4342 81.9156 34.3084 80.941 39.1825 80.6974C43.8129 80.4537 49.1743 80.941 53.3173 83.3775C53.561 83.6211 53.8048 83.1338 53.561 82.8902C49.4181 80.4537 44.0566 79.9664 39.1825 80.2101C34.0647 80.4537 29.1905 81.4283 24.8038 83.6211C24.5601 83.8648 24.8038 84.352 25.0475 84.1084Z" fill="#CFCFFF"/>
</g>
<g opacity="0.8">
<path opacity="0.8" d="M23.829 82.6466C28.4594 79.9665 33.5772 78.5046 38.9387 78.5046C41.6195 78.5046 44.3002 78.7482 46.7372 79.2355C48.1994 79.4792 49.6617 79.9665 51.1239 80.2101C52.3424 80.4537 53.561 80.6974 54.7795 81.4283C55.0232 81.4283 55.2669 81.1847 55.0232 80.941C53.8047 80.4538 52.3424 79.9665 50.8802 79.7228C49.6617 79.4792 48.1994 78.9919 46.9809 78.7482C44.0565 78.2609 41.132 77.7736 38.4513 78.0173C33.0898 78.0173 28.2157 79.4792 23.5853 82.1593C23.3416 82.6466 23.5853 82.8902 23.829 82.6466Z" fill="#CFCFFF"/>
</g>
<g opacity="0.8">
<path opacity="0.8" d="M29.1907 93.367C29.1907 97.7527 30.4091 102.138 30.4091 106.768C30.4091 107.011 30.8964 106.768 30.8964 106.524C30.8964 102.138 29.678 97.7526 29.678 93.1233C29.4343 93.1233 29.1907 93.1233 29.1907 93.367Z" fill="#CFCFFF"/>
</g>
<g opacity="0.8">
<path opacity="0.8" d="M34.3083 95.5599C34.3083 98.9709 35.0395 102.626 35.0395 106.037C35.0395 106.28 35.527 106.28 35.527 106.037C35.527 102.626 34.7958 98.9709 34.7958 95.5599C34.7958 95.3162 34.3083 95.3162 34.3083 95.5599Z" fill="#CFCFFF"/>
</g>
<g opacity="0.8">
<path opacity="0.8" d="M40.401 96.0471C40.401 99.2146 40.1573 102.626 39.9136 105.793C39.9136 106.037 40.401 106.037 40.401 105.793C40.401 102.626 40.6446 99.2146 40.8883 96.0471C40.8883 95.8035 40.401 95.8035 40.401 96.0471Z" fill="#CFCFFF"/>
</g>
<g opacity="0.8">
<path opacity="0.8" d="M47.2245 93.6106C47.2245 96.0471 46.7371 98.2399 46.4934 100.433C46.006 102.626 45.5186 104.575 45.5186 106.768C45.5186 107.011 46.006 106.768 46.006 106.524C46.006 104.087 46.7371 101.651 47.2245 99.4582C47.7119 97.509 47.9556 95.3162 47.9556 93.367C47.7119 93.367 47.2245 93.367 47.2245 93.6106Z" fill="#CFCFFF"/>
</g>
<g opacity="0.8">
<path opacity="0.8" d="M14.812 39.0338C15.0557 40.4957 15.2994 41.7139 15.5431 43.1758C16.0305 44.6376 16.7616 46.0995 17.249 47.5614C18.7113 51.2161 19.9298 54.8708 21.8794 58.2818C23.5853 61.4493 25.7786 64.6167 27.4845 68.0277C28.4593 69.7332 29.1904 71.6824 29.6778 73.6316C30.4089 75.5808 30.6527 77.5299 31.3838 79.2355C31.3838 79.4791 31.8712 79.2355 31.8712 78.9918C31.1401 77.2863 30.8964 75.5808 30.409 73.8753C29.6779 71.9261 28.9468 70.2205 28.2157 68.2714C26.5098 64.8603 24.5601 61.6929 22.6105 58.5255C20.6608 55.1145 19.4423 51.4598 17.9801 47.8051C17.249 46.0995 16.5179 44.6377 16.0305 42.9321C15.7868 41.7139 15.5431 40.252 15.2994 39.0338C15.2994 38.7901 14.812 38.7901 14.812 39.0338Z" fill="#CFCFFF"/>
</g>
<g opacity="0.8">
<path opacity="0.8" d="M41.1318 33.4299C40.8881 41.2266 40.8881 49.0233 40.6443 56.82C40.4006 63.8858 41.3755 71.1952 41.3755 78.261C41.3755 78.5046 41.8629 78.5046 41.8629 78.261C41.8629 70.9516 40.8881 63.8858 41.1318 56.82C41.3755 49.0233 41.3755 41.2266 41.6193 33.4299C41.6193 33.1863 41.1318 33.1863 41.1318 33.4299Z" fill="#CFCFFF"/>
</g>
<g opacity="0.8">
<path opacity="0.8" d="M65.015 40.4957C65.015 41.4703 64.5276 42.2012 64.2839 43.1758C64.0402 43.9067 63.7965 44.8813 63.5528 45.8559C63.0654 47.5614 62.578 49.2669 62.0906 50.7288C60.872 54.1399 59.6535 57.5509 58.435 60.7183C57.2165 64.1294 55.2668 67.2968 53.5609 70.4642C52.0987 73.388 50.6364 76.5554 48.6868 79.2355C48.4431 79.4792 48.9304 79.7228 49.1742 79.4792C51.1238 76.5554 52.586 73.6316 54.0483 70.4642C55.7542 67.2968 57.4601 64.1294 58.9224 60.7183C60.1409 57.3073 61.6031 53.8962 62.8217 50.4852C63.3091 48.7796 63.7965 46.8305 64.5276 45.1249C65.015 43.6631 65.7462 42.2012 65.9899 40.4957C65.7462 40.0084 65.2587 40.252 65.015 40.4957Z" fill="#CFCFFF"/>
</g>
<g opacity="0.8">
<path opacity="0.8" d="M32.3584 81.4283C32.3584 82.1593 32.6022 83.1338 32.8459 83.8648C33.0896 84.8394 33.3333 85.814 33.3333 87.0322C33.577 88.7377 33.577 90.6869 33.8208 92.3924C33.8208 92.6361 34.3082 92.6361 34.3082 92.3924C34.3082 90.6869 34.3082 89.225 34.0645 87.5195C33.8208 86.5449 33.8207 85.5703 33.577 84.5957C33.3333 83.6211 33.0896 82.6465 32.8459 81.4283C32.8459 81.1847 32.3584 81.1847 32.3584 81.4283Z" fill="#CFCFFF"/>
</g>
<g opacity="0.8">
<path opacity="0.8" d="M41.3755 80.6974C41.3755 83.1338 41.3755 85.3266 41.3755 87.7631C41.3755 88.494 41.3755 89.225 41.3755 90.1996C41.3755 90.4432 41.6192 91.9051 41.3755 92.1487C41.1318 92.3924 41.6192 92.636 41.8629 92.3924C42.1066 92.1487 42.1066 91.4178 42.1066 91.1741C42.1066 90.1995 42.1066 89.4686 42.1066 88.494C42.1066 86.0576 42.1066 83.6211 42.1066 80.941C41.8629 80.4537 41.3755 80.4537 41.3755 80.6974Z" fill="#CFCFFF"/>
</g>
<g opacity="0.8">
<path opacity="0.8" d="M48.4431 81.1846C45.7624 84.3521 45.7624 88.9814 45.0312 92.8797C45.0312 93.1234 45.5186 93.1234 45.5186 92.8797C46.2497 88.9814 46.0061 84.5957 48.6868 81.4283C49.1742 81.1846 48.6868 80.941 48.4431 81.1846Z" fill="#CFCFFF"/>
</g>
</g>
<path opacity="0.8" d="M47.7118 93.8543C47.7118 93.8543 46.0058 97.509 38.2073 97.0217C30.6525 96.7781 29.4341 93.1233 29.4341 93.1233C29.4341 93.1233 29.9215 90.9305 37.72 91.1742C47.4681 91.9051 47.7118 93.8543 47.7118 93.8543Z" fill="#6969CC"/>
</g>
<g opacity="0.8">
<g opacity="0.8">
<path opacity="0.8" d="M23.7322 106.52L23.6975 136.976L54.6478 137.011L54.6825 106.555L23.7322 106.52Z" fill="#FFC064"/>
<path opacity="0.8" d="M23.7455 106.278L23.739 111.882L54.6893 111.917L54.6958 106.313L23.7455 106.278Z" fill="#AF835B"/>
<path opacity="0.8" d="M23.54 111.452L55.4652 111.488L55.4716 105.884L23.5464 105.848L23.54 111.452Z" fill="#FFC064"/>
<path opacity="0.8" d="M36.7451 105.793V115.052L37.2325 114.077L37.7199 115.052L38.451 114.077L38.9385 115.052L39.4259 114.077L40.1571 115.052L40.6444 114.077L41.3756 115.052V105.793H36.7451Z" fill="#EA8237"/>
</g>
</g>
</g>
</svg>
