<svg width="212" height="143" viewBox="0 0 212 143" fill="none" xmlns="http://www.w3.org/2000/svg">
<path opacity="0.9" d="M40.6612 7.09537H34.5686V26.0998H40.6612V7.09537Z" fill="#8895FE"/>
<path opacity="0.9" d="M177.623 7.09537H171.53V26.0998H177.623V7.09537Z" fill="#8895FE"/>
<path opacity="0.9" d="M116.209 24.6379H93.545C88.9146 24.6379 85.259 20.9832 85.259 16.3539C85.259 11.7246 88.9146 8.06995 93.545 8.06995H116.209C120.84 8.06995 124.495 11.7246 124.495 16.3539C124.739 20.9832 120.84 24.6379 116.209 24.6379Z" fill="#3D38A0"/>
<path opacity="0.9" d="M170.068 24.6379H42.1233V28.5363H170.068V24.6379Z" fill="#3D38A0"/>
<path opacity="0.9" d="M37.4929 51.9264C32.3752 51.9264 28.2322 47.7844 28.2322 42.6678V30.7291C28.2322 25.6125 32.3752 21.4705 37.4929 21.4705C42.6107 21.4705 46.7537 25.6125 46.7537 30.7291V42.6678C46.9974 47.7844 42.8544 51.9264 37.4929 51.9264Z" fill="#3D38A0"/>
<path opacity="0.9" d="M74.7797 2.70972H0.449951V4.17162H74.7797V2.70972Z" fill="#8895FE"/>
<path opacity="0.9" d="M174.698 51.9264C169.581 51.9264 165.438 47.7844 165.438 42.6678V30.7291C165.438 25.6125 169.581 21.4705 174.698 21.4705C179.816 21.4705 183.959 25.6125 183.959 30.7291V42.6678C183.959 47.7844 179.816 51.9264 174.698 51.9264Z" fill="#3D38A0"/>
<path opacity="0.9" d="M211.741 2.70972H137.412V4.17162H211.741V2.70972Z" fill="#8895FE"/>
<path opacity="0.9" d="M111.335 61.6722H98.6628V68.4944H111.335V61.6722Z" fill="#3D38A0"/>
<path d="M70.8977 75.8686L70.823 141.653L138.085 141.73L138.16 75.9449L70.8977 75.8686Z" fill="#E9A056"/>
<path opacity="0.9" d="M70.8279 75.9685L70.8142 87.9072L138.077 87.9843L138.09 76.0456L70.8279 75.9685Z" fill="#AF835B"/>
<path opacity="0.9" d="M70.1898 86.4773L139.646 86.5563L139.659 74.6176L70.2034 74.5386L70.1898 86.4773Z" fill="#E9A056"/>
<path opacity="0.9" d="M99.1501 74.5855V94.5646L100.369 92.6154L101.587 94.5646L102.806 92.6154L104.024 94.5646L105.243 92.6154L106.705 94.5646L107.923 92.6154L109.142 94.5646V74.5855H99.1501Z" fill="#FFC064"/>
<path opacity="0.9" d="M76.4856 142.319H66.25V68.4944H143.748V141.832H131.563" stroke="#3D38A0" stroke-width="1.3579" stroke-miterlimit="10" stroke-linecap="round" stroke-linejoin="round"/>
<path opacity="0.9" d="M123.033 63.1341H89.1583C83.0657 63.1341 78.1917 58.2612 78.1917 52.17V27.3181C78.1917 21.2269 83.0657 16.3539 89.1583 16.3539H123.033C129.126 16.3539 134 21.2269 134 27.3181V51.9264C134.244 58.0176 129.126 63.1341 123.033 63.1341Z" fill="#7C8BFE"/>
<path opacity="0.3" d="M117.915 57.7739H94.5197C88.9145 57.7739 84.5278 53.3883 84.5278 47.7844V31.46C84.5278 25.8562 88.9145 21.4705 94.5197 21.4705H117.915C123.521 21.4705 127.907 25.8562 127.907 31.46V47.7844C127.907 53.3883 123.521 57.7739 117.915 57.7739Z" fill="#7C8BFE"/>
<g opacity="0.9">
<path opacity="0.9" d="M38.9552 4.1716H36.0308V7.82629H38.9552V4.1716Z" fill="#3D38A0"/>
<path opacity="0.9" d="M40.6613 3.6843C40.6613 5.38982 34.325 5.38982 34.325 3.6843C34.325 1.97879 35.7872 0.516907 37.4931 0.516907C39.4428 0.516907 40.6613 1.73514 40.6613 3.6843Z" fill="#8895FE"/>
</g>
<g opacity="0.9">
<path opacity="0.9" d="M176.161 4.1716H173.236V7.82629H176.161V4.1716Z" fill="#3D38A0"/>
<path opacity="0.9" d="M177.867 3.6843C177.867 5.38982 171.53 5.38982 171.53 3.6843C171.53 1.97879 172.992 0.516907 174.698 0.516907C176.404 0.516907 177.867 1.73514 177.867 3.6843Z" fill="#8895FE"/>
</g>
</svg>
