<svg width="605" height="103" viewBox="0 0 605 103" fill="none" xmlns="http://www.w3.org/2000/svg">
<path d="M595 103H10C4.47711 103 0 98.5228 0 93V50.103C0 44.0793 5.2879 39.4022 11.3062 39.6591C29.6606 40.4425 57.7269 38.7132 77.234 27.7931C107.484 10.8591 132.585 -15.5414 191.798 11.852C230.103 29.5729 283.835 44.7272 322.452 31.7776C339.342 26.1137 361.069 -5.08214 418.351 5.37699C445.454 10.3257 480.138 27.7931 527.122 20.3222C554.776 15.925 576.14 17.0596 594.059 20.3222C605 22.3144 605 29.1212 605 27.7931V93C605 98.5229 600.523 103 595 103Z" fill="#E1E5FE"/>
<path opacity="0.6" d="M9.99999 103H595C600.523 103 605 98.5227 605 92.9998V50.1028C605 44.0791 599.712 39.402 593.694 39.6589C575.339 40.4423 547.273 38.713 527.766 27.7929C497.516 10.8589 452.463 -5.07889 395.824 15.8395C355.548 30.7148 321.165 44.727 282.548 31.7774C265.658 26.1135 242 5.38035 184.718 15.8395C157.615 20.7882 93.6081 33.3065 77.8777 20.322C58.5691 4.38412 28.8601 17.0594 10.9415 20.322C0 22.3142 0 29.1211 0 27.7929V92.9998C0 98.5227 4.47714 103 9.99999 103Z" fill="#DDF3FF"/>
</svg>
