<svg width="60" height="60" viewBox="0 0 60 60" fill="none" xmlns="http://www.w3.org/2000/svg">
<g clip-path="url(#clip0)">
<path d="M56.3824 52.1342C56.2149 52.0376 56.0473 51.947 55.8798 51.8604C61.589 43.6097 61.2457 20.4972 55.5905 12.0487C55.8542 11.9219 56.1187 11.7823 56.3824 11.6303C59.2206 9.9952 59.8472 8.13989 59.0498 6.75607C58.2524 5.37225 56.3334 4.98406 53.4948 6.61965C52.4983 7.19369 51.6487 7.86843 50.9987 8.56149C44.8069 6.29098 33.3143 6.29098 27.1226 8.56149C26.4726 7.86843 25.623 7.19415 24.6264 6.61965C21.7883 4.98406 19.8689 5.37225 19.0715 6.75607C18.274 8.13989 18.9007 9.9952 21.7393 11.6303C22.0025 11.7823 22.2671 11.9219 22.5308 12.0487C16.876 20.4972 16.5323 43.6097 22.2415 51.8604C22.0739 51.947 21.9064 52.0376 21.7393 52.1342C18.9007 53.7698 18.274 55.6246 19.0715 57.0085C19.8689 58.3923 21.7883 58.7805 24.6264 57.1449C25.5873 56.5914 26.4122 55.9442 27.0521 55.2772C33.3853 57.4484 44.736 57.4484 51.0687 55.2772C51.7091 55.9442 52.534 56.5914 53.4948 57.1449C56.333 58.7805 58.2524 58.3923 59.0498 57.0085C59.8472 55.6246 59.2206 53.7698 56.3824 52.1342Z" fill="#FFC064"/>
<path d="M56.3823 52.1341C56.2147 52.0376 56.0472 51.9469 55.8796 51.8604C61.5889 43.6097 61.2455 20.4972 55.5903 12.0487C55.854 11.9219 56.1186 11.7823 56.3823 11.6303C59.2204 9.99517 59.8471 8.13985 59.0496 6.75603C58.4088 5.64412 57.0428 5.17629 55.0584 5.88353C55.4255 6.09136 55.7176 6.38799 55.9295 6.75603C56.727 8.13985 56.1003 9.99517 53.2621 11.6303C52.9985 11.7823 52.7339 11.9219 52.4702 12.0487C58.1254 20.4972 58.4687 43.6097 52.7595 51.8604C52.9271 51.9469 53.0946 52.0376 53.2621 52.1341C56.1003 53.7697 56.727 55.6246 55.9295 57.0084C55.7176 57.3765 55.4255 57.6731 55.0584 57.8809C57.0428 58.5886 58.4088 58.1203 59.0496 57.0084C59.8471 55.6246 59.2204 53.7697 56.3823 52.1341Z" fill="#C68D4E"/>
<path d="M12.2897 10.47L21.1488 34.8093L16.2173 36.6042L7.35864 12.2649C8.23114 12.2823 9.12149 12.1417 9.99078 11.8254C10.8601 11.5091 11.6328 11.0445 12.2897 10.47Z" fill="#927DDB"/>
<path d="M21.1486 34.8093L12.2895 10.47C11.6495 11.0294 10.8997 11.4835 10.0579 11.7993L18.7508 35.6822L16.2171 36.6042L21.1486 34.8093Z" fill="#3D38A0"/>
<path d="M7.50371 13.1457C7.4497 13.1457 7.39568 13.1448 7.34121 13.1439C4.55754 13.0876 1.94142 11.5715 0.514117 9.18742C0.199634 8.66282 0.137378 8.03157 0.34154 7.45478C0.546618 6.87754 0.994311 6.42665 1.56926 6.21699L12.8367 2.11589C13.4121 1.90669 14.0452 1.96482 14.573 2.27519C15.1003 2.58509 15.4583 3.10923 15.5549 3.71302C15.9939 6.45686 14.9643 9.30003 12.8682 11.132C12.1111 11.7939 11.2441 12.3048 10.291 12.6518C9.39015 12.9795 8.45311 13.1457 7.50371 13.1457ZM13.4382 3.76796L2.17076 7.8686C2.05999 7.90889 2.01512 7.99495 1.99819 8.04255C1.98125 8.09016 1.96202 8.18446 2.02199 8.28471C3.14122 10.1538 5.19292 11.3421 7.37645 11.3865C8.16335 11.4016 8.942 11.2721 9.69045 10.9997C10.4384 10.7273 11.1187 10.3268 11.7115 9.80861C13.3558 8.37123 14.1633 6.14192 13.8195 3.99043C13.8007 3.87553 13.7252 3.81556 13.6821 3.78993C13.6382 3.76475 13.5485 3.72767 13.4382 3.76796Z" fill="#1B223A"/>
<path d="M28.1584 23.0025V28.303C28.1584 30.1061 29.6201 31.5682 31.4232 31.5682H46.6974C48.5005 31.5682 49.9626 30.1061 49.9626 28.303V23.0025C49.9626 21.1994 48.5005 19.7373 46.6974 19.7373H31.4232C29.6201 19.7373 28.1584 21.1994 28.1584 23.0025Z" fill="#EA8237"/>
<path d="M39.5755 52.0266C39.5755 47.4398 36.3084 43.6184 31.9743 42.7588C31.7372 36.6746 26.6959 31.8237 20.5367 31.8983C14.5999 31.9702 9.66843 36.7163 9.38095 42.6466C9.32373 43.829 9.44916 44.9739 9.73023 46.056C7.10633 46.7743 5.17639 49.1748 5.17594 52.0262H3.45795C1.54816 52.0266 0 53.5748 0 55.4846V57.8174C0 58.0385 0.178986 58.2174 0.399628 58.2174H44.9794C45.2001 58.2174 45.379 58.0385 45.379 57.8174V55.4846C45.379 53.5748 43.8309 52.0266 41.9211 52.0266H39.5755Z" fill="#AABFD5"/>
<path d="M41.921 52.0266H39.5754C39.5754 47.4398 36.3084 43.6184 31.9743 42.7588C31.7372 36.6746 26.6958 31.8237 20.5366 31.8983C20.0715 31.9043 19.6137 31.9418 19.1628 32.0027C24.5306 32.7383 28.6967 37.2413 28.9123 42.7588C33.2459 43.6184 36.513 47.4398 36.513 52.0266H38.8586C40.7684 52.0266 42.3165 53.5748 42.3165 55.4846V57.8174C42.3165 58.0385 42.1375 58.2174 41.9169 58.2174H44.9793C45.2 58.2174 45.379 58.0385 45.379 57.8174V55.4846C45.379 53.5748 43.8308 52.0266 41.921 52.0266Z" fill="#7D8EB0"/>
<path d="M32.3166 51.3981C31.8314 51.3981 31.4377 51.0049 31.4377 50.5192C31.4377 49.2526 30.4073 48.2222 29.1407 48.2222C28.6802 48.2222 28.2361 48.3577 27.8571 48.614C27.4547 48.8859 26.9082 48.7797 26.6367 48.3778C26.3648 47.9754 26.4705 47.4289 26.8725 47.1574C27.5435 46.7038 28.3277 46.4644 29.1407 46.4644C31.3764 46.4644 33.1955 48.283 33.1955 50.5192C33.1955 51.0049 32.8019 51.3981 32.3166 51.3981Z" fill="#7D8EB0"/>
<path d="M12.3106 51.9826C12.1257 51.9826 11.9393 51.9249 11.7805 51.8045C11.3937 51.5111 11.3177 50.96 11.6107 50.5732C12.3413 49.6086 13.4541 49.0557 14.6626 49.0557C15.5978 49.0557 16.4978 49.3967 17.1977 50.0156C17.5611 50.3369 17.5955 50.8927 17.2737 51.2561C16.9519 51.6201 16.3966 51.6539 16.0331 51.3321C15.655 50.9975 15.1679 50.8135 14.6626 50.8135C14.0089 50.8135 13.4074 51.1129 13.0119 51.6347C12.8388 51.8627 12.5761 51.9826 12.3106 51.9826Z" fill="#7D8EB0"/>
<path d="M17.5469 41.3386C17.4251 41.3386 17.3015 41.3134 17.1839 41.2599C16.7417 41.0589 16.5462 40.538 16.7467 40.0962C16.9486 39.6517 17.2342 39.2576 17.5954 38.9248C19.0717 37.5648 21.3793 37.6596 22.7398 39.1358C23.0684 39.4929 23.046 40.0486 22.689 40.3778C22.3319 40.7064 21.7757 40.6835 21.447 40.327C20.7435 39.5634 19.5496 39.514 18.7861 40.218C18.5993 40.3901 18.4514 40.5938 18.3475 40.8227C18.2006 41.1468 17.8811 41.3386 17.5469 41.3386Z" fill="#7D8EB0"/>
</g>
<defs>
<clipPath id="clip0">
<rect width="60" height="60" fill="white"/>
</clipPath>
</defs>
</svg>
