<svg width="60" height="60" viewBox="0 0 60 60" fill="none" xmlns="http://www.w3.org/2000/svg">
<path d="M30.0001 3.18677L4.64941 14.887L30.0001 26.5873L55.3509 14.887L30.0001 3.18677Z" fill="#E8CDA6"/>
<path d="M54.7842 45.3746L30 56.8134V26.5875L55.3508 14.8872V44.4892C55.3507 44.8695 55.1296 45.2151 54.7842 45.3746Z" fill="#FFC064"/>
<path d="M5.21578 45.3746L30.0001 56.8134V26.5875L4.64941 14.8872V44.4891C4.64941 44.8695 4.87055 45.2151 5.21578 45.3746Z" fill="#E0B16C"/>
<path d="M55.3508 14.8872L30 26.5875L34.5306 40.1795C34.7144 40.7308 35.3366 41 35.8642 40.7566L59.4334 29.8785C59.8845 29.6702 60.1069 29.1561 59.9497 28.6848L55.3508 14.8872Z" fill="#E0BB85"/>
<path d="M4.64927 14.8872L30.0001 26.5875L25.4693 40.1795C25.2856 40.7308 24.6633 41 24.1357 40.7566L0.566556 29.8784C0.1155 29.6701 -0.106923 29.156 0.0502259 28.6847L4.64927 14.8872Z" fill="#E0BB85"/>
<path d="M55.3508 14.887L30 3.18677V26.5873L55.3508 14.887Z" fill="#E0B16C"/>
</svg>
