<svg width="16" height="16" viewBox="0 0 16 16" fill="none" xmlns="http://www.w3.org/2000/svg">
<g clip-path="url(#clip0)">
<path d="M12.1056 10.1092L10.5524 11.6624L4.33762 5.44763L5.89081 3.89443L1.99634 0C1.99634 0 0.135278 1.71204 0.0101261 3.06996C-0.157364 4.88756 1.76661 8.19214 4.78723 11.2128C7.80786 14.2334 11.1124 16.1574 12.93 15.9899C14.2879 15.8647 16 14.0037 16 14.0037L12.1056 10.1092Z" fill="white"/>
<path d="M14.5193 7.10741H15.5742C15.5742 3.42333 12.577 0.42609 8.8929 0.42609V1.48103C11.9953 1.48103 14.5193 4.00503 14.5193 7.10741Z" fill="white"/>
<path d="M12.0574 7.10741H13.1123C13.1123 4.78063 11.2193 2.88763 8.89253 2.88763V3.94258C10.6376 3.94258 12.0574 5.36232 12.0574 7.10741Z" fill="white"/>
</g>
<defs>
<clipPath id="clip0">
<rect width="16" height="16" fill="white" transform="matrix(-1 0 0 1 16 0)"/>
</clipPath>
</defs>
</svg>
