<svg width="60" height="60" viewBox="0 0 60 60" fill="none" xmlns="http://www.w3.org/2000/svg">
<g clip-path="url(#clip0)">
<path d="M54.7739 35.5715V35.7167H5.22609V35.5715H0.00140625H0V58.8321H5.22609V53.7265H54.7739V58.8321H60V53.5278V35.5715H54.7739Z" fill="#DBDBFF"/>
<path d="M37.403 7.04736H37.4044H60.0001V24.9758H0.00146484V7.04736H22.5971H37.403Z" fill="#DBDBFF"/>
<path d="M60.0001 31.4902V31.7782H0.00146484V27.4583H60.0001V31.4902Z" fill="#F2F2F2"/>
<path d="M37.4031 7.04714V19.2413H22.5972V7.04714V1.16772H37.4031V7.04714Z" fill="#F2F2F2"/>
<path d="M33.7752 5.05957H26.2263V6.51129H33.7752V5.05957Z" fill="#4F4F4F"/>
<path d="M33.7752 9.44604H26.2263V10.8978H33.7752V9.44604Z" fill="#4F4F4F"/>
<path d="M60.0001 23.3787H0.00146484V27.95H4.12389V32.4506H5.57561V27.95H8.69678V32.4506H10.1484V27.95H13.2696V32.4506H14.7213V27.95H17.8424V32.4506H19.294V27.95H22.4152V32.4506H23.8669V27.95H26.9881V32.4506H28.4398V27.95H31.5609V32.4506H33.0126V27.95H36.1338V32.4506H37.5855V27.95H40.7067V32.4506H42.1583V27.95H45.2794V32.4506H46.7312V27.95H49.8523V32.4506H51.3039V27.95H54.4251V32.4506H55.8768V27.95H60.0001V23.3787Z" fill="#4F4F4F"/>
<path d="M33.7752 13.8345H26.2263V15.2862H33.7752V13.8345Z" fill="#4F4F4F"/>
<path d="M60.0001 31.2166V36.4426H54.774H5.22615H0.00146484V31.2166H4.85021H9.42299H13.9959H18.5687H23.1415H27.7143H32.2872H36.8601H41.4329H46.0058H50.5785H55.1514H60.0001Z" fill="#2D24A3"/>
<path opacity="0.47" d="M54.7739 36.4419H5.22607V40.3615H54.7739V36.4419Z" fill="#2D24A3"/>
</g>
<defs>
<clipPath id="clip0">
<rect width="60" height="60" fill="white"/>
</clipPath>
</defs>
</svg>
