<svg width="80" height="80" viewBox="0 0 80 80" fill="none" xmlns="http://www.w3.org/2000/svg">
<path d="M57.4056 23.4928L55.0781 22.0123L59.1683 15.5839L61.4959 17.0643L57.4056 23.4928Z" fill="#EAEFF3"/>
<path d="M62.8164 18.7233L63.5576 17.5589C63.9667 16.9162 63.7775 16.0637 63.1348 15.6545L59.7534 13.5017C59.1108 13.0926 58.2583 13.2819 57.849 13.9245L57.1078 15.0889C56.6987 15.7316 56.888 16.5841 57.5306 16.9933L60.912 19.1461C61.5547 19.5551 62.4072 19.3659 62.8164 18.7233Z" fill="#7C8BFE"/>
<path d="M22.5945 23.4928L18.5042 17.0643L20.8318 15.5839L24.922 22.0123L22.5945 23.4928Z" fill="#EAEFF3"/>
<path d="M39.9998 16.5517C35.4362 16.5517 31.7239 12.8395 31.7239 8.27578C31.7239 3.71203 35.4362 0 39.9998 0C44.5634 0 48.2758 3.71219 48.2758 8.27594C48.2758 12.8397 44.5634 16.5517 39.9998 16.5517ZM39.9998 2.75859C36.957 2.75859 34.4826 5.23313 34.4826 8.27578C34.4826 11.3184 36.9572 13.793 39.9998 13.793C43.0425 13.793 45.517 11.3184 45.517 8.27578C45.517 5.23313 43.0426 2.75859 39.9998 2.75859Z" fill="#7C8BFE"/>
<path d="M41.3792 9.65515H38.6206V17.9311H41.3792V9.65515Z" fill="#EAEFF3"/>
<path d="M39.9999 80C57.5207 80 71.724 65.7967 71.724 48.2759C71.724 30.7552 57.5207 16.5519 39.9999 16.5519C22.4792 16.5519 8.27588 30.7552 8.27588 48.2759C8.27588 65.7967 22.4792 80 39.9999 80Z" fill="#7C8BFE"/>
<path d="M42.0689 11.0346H37.9309C37.1692 11.0346 36.5515 10.417 36.5515 9.65523V8.27586C36.5515 7.51414 37.1692 6.89648 37.9309 6.89648H42.0689C42.8306 6.89648 43.4482 7.51414 43.4482 8.27586V9.65523C43.4482 10.417 42.8306 11.0346 42.0689 11.0346Z" fill="#7C8BFE"/>
<path d="M39.9999 77.2414C55.9971 77.2414 68.9654 64.2731 68.9654 48.2759C68.9654 32.2787 55.9971 19.3104 39.9999 19.3104C24.0027 19.3104 11.0344 32.2787 11.0344 48.2759C11.0344 64.2731 24.0027 77.2414 39.9999 77.2414Z" fill="#EAEFF3"/>
<path d="M39.9998 74.4828C54.4735 74.4828 66.2067 62.7496 66.2067 48.276C66.2067 33.8023 54.4735 22.0691 39.9998 22.0691C25.5262 22.0691 13.793 33.8023 13.793 48.276C13.793 62.7496 25.5262 74.4828 39.9998 74.4828Z" fill="white"/>
<path d="M54.6297 62.9054C58.3738 59.1615 60.6897 53.989 60.6897 48.2757C60.6897 36.8492 51.4266 27.5861 40 27.5861V48.2757L54.6297 62.9054Z" fill="#F3DCB9"/>
<path d="M17.1835 18.7233L16.4423 17.5589C16.0332 16.9162 16.2224 16.0637 16.8651 15.6545L20.2465 13.5017C20.8891 13.0926 21.7416 13.2819 22.1509 13.9245L22.8921 15.0889C23.3012 15.7316 23.112 16.5841 22.4693 16.9933L19.0879 19.1461C18.4451 19.5551 17.5926 19.3659 17.1835 18.7233Z" fill="#7C8BFE"/>
<path d="M40 24.8276C39.2383 24.8276 38.6206 25.4453 38.6206 26.207V28.9656C38.6206 29.7273 39.2383 30.345 40 30.345C40.7617 30.345 41.3794 29.7273 41.3794 28.9656V26.207C41.3794 25.4451 40.7617 24.8276 40 24.8276Z" fill="#192C97"/>
<path d="M40 66.2068C39.2383 66.2068 38.6206 66.8244 38.6206 67.5862V70.3448C38.6206 71.1065 39.2383 71.7241 40 71.7241C40.7617 71.7241 41.3794 71.1065 41.3794 70.3448V67.5862C41.3794 66.8244 40.7617 66.2068 40 66.2068Z" fill="#192C97"/>
<path d="M63.448 48.276C63.448 47.5143 62.8304 46.8966 62.0686 46.8966H59.31C58.5483 46.8966 57.9307 47.5143 57.9307 48.276C57.9307 49.0377 58.5483 49.6554 59.31 49.6554H62.0686C62.8304 49.6552 63.448 49.0377 63.448 48.276Z" fill="#192C97"/>
<path d="M22.0689 48.276C22.0689 47.5143 21.4512 46.8966 20.6895 46.8966H17.9309C17.1692 46.8966 16.5515 47.5143 16.5515 48.276C16.5515 49.0377 17.1692 49.6554 17.9309 49.6554H20.6895C21.4514 49.6552 22.0689 49.0377 22.0689 48.276Z" fill="#192C97"/>
<path d="M28.2761 68.5826C28.9358 68.9636 29.7794 68.7375 30.1601 68.0778L31.5395 65.6889C31.9204 65.0292 31.6943 64.1856 31.0347 63.8047C30.375 63.4237 29.5314 63.6498 29.1506 64.3095L27.7712 66.6984C27.3903 67.3581 27.6164 68.2017 28.2761 68.5826Z" fill="#E1E5FE"/>
<path d="M48.9657 32.747C49.6253 33.128 50.4689 32.9019 50.8499 32.2422L52.2293 29.8533C52.6102 29.1936 52.3841 28.35 51.7244 27.9692C51.0647 27.5883 50.2211 27.8144 49.8402 28.4741L48.4608 30.863C48.08 31.5227 48.3061 32.3663 48.9657 32.747Z" fill="#E1E5FE"/>
<path d="M19.6933 36.5518C19.3124 37.2114 19.5385 38.055 20.1982 38.4358L22.5871 39.8152C23.2468 40.1961 24.0904 39.97 24.4712 39.3103C24.8521 38.6507 24.626 37.8071 23.9663 37.4263L21.5774 36.0469C20.9177 35.6661 20.0741 35.8921 19.6933 36.5518Z" fill="#E1E5FE"/>
<path d="M55.5288 57.2414C55.1479 57.9011 55.3739 58.7447 56.0336 59.1256L58.4225 60.505C59.0822 60.8859 59.9258 60.6598 60.3066 60.0001C60.6876 59.3405 60.4615 58.4969 59.8018 58.1159L57.4129 56.7366C56.7532 56.3556 55.9097 56.5817 55.5288 57.2414Z" fill="#E1E5FE"/>
<path d="M51.724 68.5826C51.0643 68.9636 50.2208 68.7375 49.8398 68.0778L48.4604 65.6889C48.0795 65.0292 48.3056 64.1856 48.9653 63.8047C49.625 63.4237 50.4686 63.6498 50.8495 64.3095L52.2289 66.6984C52.6098 67.3581 52.3837 68.2017 51.724 68.5826Z" fill="#E1E5FE"/>
<path d="M31.0347 32.747C30.375 33.128 29.5314 32.9019 29.1506 32.2422L27.7712 29.8533C27.3903 29.1936 27.6164 28.35 28.2761 27.9692C28.9358 27.5883 29.7794 27.8144 30.1601 28.4741L31.5395 30.863C31.9203 31.5227 31.6942 32.3663 31.0347 32.747Z" fill="#E1E5FE"/>
<path d="M60.3068 36.5518C60.6877 37.2114 60.4616 38.055 59.8019 38.4358L57.413 39.8152C56.7533 40.1961 55.9097 39.97 55.5288 39.3103C55.1479 38.6507 55.3739 37.8071 56.0336 37.4263L58.4225 36.0469C59.0822 35.6661 59.926 35.8921 60.3068 36.5518Z" fill="#E1E5FE"/>
<path d="M24.4714 57.2414C24.8523 57.9011 24.6262 58.7447 23.9666 59.1256L21.5777 60.505C20.918 60.8859 20.0744 60.6598 19.6936 60.0001C19.3127 59.3405 19.5387 58.4969 20.1984 58.1159L22.5873 56.7366C23.2469 56.3556 24.0905 56.5817 24.4714 57.2414Z" fill="#E1E5FE"/>
<path d="M55.1722 64.8277C54.8192 64.8277 54.4663 64.693 54.1971 64.4236L36.2661 46.4923C35.7274 45.9536 35.7274 45.0806 36.2661 44.5419C36.8049 44.0031 37.6778 44.0031 38.2166 44.5419L56.1477 62.473C56.6864 63.0117 56.6864 63.8847 56.1477 64.4234C55.8782 64.693 55.5252 64.8277 55.1722 64.8277Z" fill="#FFB127"/>
<path d="M40 51.0345C41.5236 51.0345 42.7586 49.7995 42.7586 48.2759C42.7586 46.7524 41.5236 45.5173 40 45.5173C38.4765 45.5173 37.2415 46.7524 37.2415 48.2759C37.2415 49.7995 38.4765 51.0345 40 51.0345Z" fill="#EAEFF3"/>
</svg>
